# xmcd CD database file
#
# Track frame offsets:
#	150
#	10591
#	21906
#	35053
#	46221
#	55968
#	69832
#	82387
#	93855
#	102222
#	115014
#	127938
#	138875
#	149249
#
# Disc length: 2190 seconds
#
# Revision: 0
# Processed by: cddbd v1.4PL0 Copyright (c) Steve Scherf et al.
# Submitted via: Feurio! 1.63 - http://www.feurio.com
#
DISCID=bb088c0e
DTITLE=Bob Minser - Rock Mountain Yodeler
DYEAR=1900
DGENRE=
TTITLE0=San Antonio Rose
TTITLE1=Cattle Call
TTITLE2=Lulubell
TTITLE3=Twilite is the Time
TTITLE4=That's How the Yodel Was Born
TTITLE5=Rocky Mountian Yodeler
TTITLE6=I Believe
TTITLE7=Swiss Yodel
TTITLE8=She Taught Me To Yodel
TTITLE9=Faded Love
TTITLE10=Mountain Cowboy
TTITLE11=Chime Bells
TTITLE12=Pinto Pal
TTITLE13=How Great Thou Art
EXTD=
EXTT0=
EXTT1=
EXTT2=
EXTT3=
EXTT4=
EXTT5=
EXTT6=
EXTT7=
EXTT8=
EXTT9=
EXTT10=
EXTT11=
EXTT12=
EXTT13=
PLAYORDER=
